<?xml version="1.0" encoding="UTF-8" standalone="no"?>
<svg
   xmlns:dc="http://purl.org/dc/elements/1.1/"
   xmlns:cc="http://creativecommons.org/ns#"
   xmlns:rdf="http://www.w3.org/1999/02/22-rdf-syntax-ns#"
   xmlns:svg="http://www.w3.org/2000/svg"
   xmlns="http://www.w3.org/2000/svg"
   viewBox="0 0 4266.6665 2666.6667"
   height="2666.6667"
   width="4266.6665"
   xml:space="preserve"
   id="svg2"
   version="1.1"><metadata
     id="metadata8"><rdf:RDF><cc:Work
         rdf:about=""><dc:format>image/svg+xml</dc:format><dc:type
           rdf:resource="http://purl.org/dc/dcmitype/StillImage" /></cc:Work></rdf:RDF></metadata><defs
     id="defs6" /><g
     transform="matrix(1.3333333,0,0,-1.3333333,0,2666.6667)"
     id="g10"><g
       transform="scale(0.1)"
       id="g12"><g
         transform="scale(1.96319)"
         id="g14"><path
           id="path16"
           style="fill:#ffffff;fill-opacity:1;fill-rule:nonzero;stroke:none"
           d="M 16300,0 H 0 V 10187.5 H 16300 V 0" /></g><g
         transform="scale(1.89058)"
         id="g18"><path
           id="path20"
           style="fill:#ebf3fa;fill-opacity:1;fill-rule:nonzero;stroke:none"
           d="m 15650.3,1020.8 c -280.1,0 -853.9,-25.181 -860,-36.607 h -1446.8 l -423.4,1.112 H 9128.56 l -1107.28,1.163 H 5102.2 L 3882.98,987.58 H 1678.17 c 0,0 -3.66,9.203 -10.96,27.61 l -1.22,2.27 c 0,0 -1.22,2.33 -1.22,3.44 -4.87,9.15 -1834.747,3657.98 1186.49,5456.68 1182.1,703.77 559.2,2109.08 2308.79,2960.37 1299.81,632.45 2054.76,371 2971.52,109.57 674.29,-192.29 1436.11,-384.59 2566.63,-221.19 2316.7,334.87 3372.3,-731.65 3209.7,-2317.82 -76.4,-745.04 447.9,-1316.13 965.2,-1418.57 1426.9,-282.59 1375.8,-1937.89 1259.1,-3154.02 -71.9,-749.77 -472.1,-1415.12 -481.9,-1415.12" /></g><g
         transform="scale(1.43417)"
         id="g22"><path
           id="path24"
           style="fill:#cde0fb;fill-opacity:1;fill-rule:nonzero;stroke:none"
           d="m 15247.8,9054.44 c -5.3,0 -10.6,1.18 -15.6,3.64 l -137.4,67.53 c -16.6,8.32 -24.6,27.82 -18.2,45.36 l 47.5,130.8 c 5.3,14.53 0.7,30.84 -11.3,40.22 -50.4,40.59 -94.3,88.62 -129.9,142.67 -6.9,10.09 -18,15.83 -29.7,15.83 -4.1,0 -8.3,-0.71 -12.3,-2.19 l -116.3,-42.17 c -4.1,-1.49 -8.3,-2.2 -12.5,-2.2 -13.6,0 -26.4,7.67 -32.7,20.45 l -67.8,137.71 c -8.1,16.3 -2.2,35.97 13.2,45.18 l 139.7,84.36 c 11.8,7.09 18.6,20.38 17.5,34.21 -1.4,17.01 -2.1,34.2 -2.1,51.57 0,32.78 2.5,64.86 7.2,96.05 2.4,14.18 -4,28.36 -16.4,35.63 l -145.2,87.41 c -15.9,9.7 -21.8,29.7 -13.6,46.4 l 67.7,137.9 c 6.1,12.3 18.9,19.8 32.2,19.8 2.3,0 4.6,-0.2 6.9,-0.7 1.6,-0.3 3.4,-0.7 5,-1.4 l 145.1,-52.6 c 4.2,-1.6 8.4,-2.3 12.6,-2.3 9.6,0 19,3.8 25.7,11.1 0.9,0.9 1.8,1.8 2.5,2.8 2.3,3.1 4.4,5.9 7.1,8.7 27.7,34.8 59.2,66.5 93.8,94.7 11.7,9.2 15.9,25.1 10.6,39.3 l -44.5,122.8 c -6.4,17.4 1.6,36.9 18.2,45 l 30.6,15.1 106.5,52.3 c 5,2.5 10.4,3.7 15.8,3.7 12.1,0 24,-6.3 30.8,-17.4 l 70.5,-117.1 c 6.3,-10.7 17.7,-16.7 29.8,-16.7 2.1,0 4.4,0.2 6.5,0.6 37.6,7.1 76.8,10.8 116.7,10.8 29.5,0 59,-2.1 87.5,-6.2 l 15.3,25.3 62.7,103.9 c 6.4,10.8 17.9,17 29.8,17 2.4,0 4.7,-0.2 7,-0.7 3,-0.6 5.9,-1.6 8.7,-3 l 138.5,-67.7 c 16.3,-8.2 23.7,-27.3 17.7,-44.3 l -32.7,-89.4 c -5.4,-15 0,-32.4 13.3,-41.4 55.1,-37.4 103.9,-83.1 144.3,-135.4 6.9,-9 17.2,-14 27.8,-14 4.1,0 8.1,0.7 12.1,2.3 l 146.9,53.3 c 3.8,1.4 7.7,2 11.6,2 12.8,0 24.9,-7.1 30.9,-19.2 l 68.4,-139.3 c 8.2,-16.5 2.3,-36.3 -13.3,-45.5 l -145.3,-87.74 c -12.5,-7.44 -19.2,-21.8 -16.9,-36.33 5.1,-31.01 7.4,-62.91 7.4,-95.52 0,-17.55 -0.7,-34.92 -2.2,-52.11 -1,-13.46 5.5,-26.41 17,-33.5 l 139.2,-83.82 c 16.1,-9.75 22.1,-29.95 13.9,-46.96 l -66.1,-134.33 -1.6,-3.2 c -6.2,-12.48 -18.7,-19.87 -32,-19.87 -4,0 -8.1,0.69 -12,2.14 l -117.6,42.72 c -2,0.71 -3.9,1.24 -5.8,1.6 -2,0.34 -4,0.5 -6.1,0.5 -11.6,0 -22.9,-5.62 -29.4,-15.75 -45.9,-69.29 -104.9,-128.66 -174,-174.74 -2.8,-1.94 -5.3,-4.25 -7.4,-6.73 -8,-9.57 -10.5,-23.04 -6.2,-35.09 l 35.8,-98 c 4.6,-12.94 1.2,-27.3 -7.8,-36.87 -2.9,-2.83 -6.3,-5.49 -10.2,-7.44 l -137.1,-67.53 c -5.1,-2.52 -10.6,-3.73 -16,-3.73 -12.4,0 -24.5,6.38 -31.4,17.73 l -71.5,118.92 c -6.5,10.65 -17.9,17.03 -30.2,17.03 -1.2,0 -2.4,-0.06 -3.7,-0.19 -19.6,-1.77 -39.3,-2.83 -59.3,-2.83 -37.6,0 -74.3,3.35 -109.9,9.74 h -0.2 c -2.2,0.39 -4.4,0.59 -6.6,0.59 -12.5,0 -24.2,-6.4 -30.8,-17.43 l -72.9,-120.69 -3.7,-6.02 c -6.4,-10.88 -18.1,-17.11 -30.1,-17.11 m 254,1108.46 c -49.3,0 -101.1,-10.6 -153.1,-34 -5,-2.3 -10,-4.6 -14.9,-7.1 -46.4,-22.9 -103.3,-80.1 -126.4,-126.39 -12.1,-24.28 -21.3,-48.55 -28,-72.48 -62.5,-226.36 106.1,-431.02 322.5,-431.02 12.7,0 25.5,0.7 38.5,2.14 41.1,4.6 83.3,16.66 125.6,37.22 9.1,4.25 18.7,10.1 28.4,16.66 41.7,28.89 84.4,75.49 103.7,115.19 122,251.83 -58.1,499.78 -296.3,499.78" /></g><g
         transform="scale(1.08997)"
         id="g26"><path
           id="path28"
           style="fill:#cde0fb;fill-opacity:1;fill-rule:nonzero;stroke:none"
           d="m 10098,14081 c 12.6,75.5 32.8,153 61.7,231.4 55.2,149.5 210.6,343.8 345.2,429.3 14.4,9.2 28.8,17.9 43.3,26.7 885.7,519.1 1882.6,-297.7 1532.2,-1278.1 -46.1,-128.1 -161.5,-285.1 -279.5,-387.5 -27.7,-23.3 -55,-44.4 -81.4,-60.5 -123,-77.1 -248.2,-128 -372.7,-155.8 -709.4,-157.7 -1371.88,438.2 -1248.8,1194.5 z m 3453.9,-447.1 -454.2,210.7 c -37.8,17.9 -62.2,55.4 -63.3,97 -1.4,53.1 -5,106.6 -10.9,160.4 -10.8,99.9 -28.4,196.9 -53.9,290.3 -11.9,43.8 3.4,90 39.5,117 l 416.2,317.1 c 44.7,33.4 56.1,96.2 25.6,144 l -255.9,404.2 c -29.2,45.7 -87.5,61.9 -136.1,38.5 l -432.5,-212.3 c -41.7,-21.5 -92.7,-12.2 -126.1,22.6 -141.3,146.8 -305.8,270.8 -487.2,367.1 -43.7,23.3 -66.3,74.7 -54.5,122.7 l 70.3,284.5 c 12.9,54.2 -16.4,110.4 -69.1,129.9 l -446.7,161.5 c -9.1,3.4 -18.1,5.8 -27.5,6.4 -44.5,4.5 -88.5,-20.1 -107.6,-62.2 l -157.7,-339.2 -38.4,-82.7 c -88.8,3 -179.6,-0.2 -270.4,-10.1 -122.2,-13.2 -241,-37.7 -353.7,-71.9 -43.1,-12.9 -89.7,1.3 -116.7,37.4 l -255.2,335.6 c -35.1,45.6 -99.1,57.4 -147.3,26.3 l -309.1,-195.6 -88.44,-56.3 c -48.35,-30.5 -66.24,-92.9 -40.92,-144 l 177.07,-361.6 c 21.01,-41.7 13.3,-92 -19.45,-124.2 -96.61,-97.8 -182.76,-205.5 -255.88,-321.2 -7.24,-9.5 -12.84,-18.9 -18.9,-28.9 -1.83,-3.5 -4.22,-6.5 -6.6,-9.5 -26.43,-35.3 -71.47,-50.7 -114.41,-39.9 l -462.32,113.1 c -5.13,1.6 -10.67,2.1 -15.69,2.7 -48.86,4.6 -96.24,-24.8 -113.68,-71.7 l -161.67,-445.1 c -19.45,-53.7 5.14,-113.2 57.26,-137.8 l 473.86,-219.5 c 40.4,-18.1 64.71,-59.5 62.33,-103.7 -4.31,-97.2 -1.2,-196.3 9.63,-296.8 5.78,-53.2 13.67,-105.7 23.67,-157.3 7.89,-42.1 -8.35,-85 -42.38,-110.7 L 8793,13115.8 c -44.18,-33.4 -55.58,-95.6 -25.72,-143 l 253.79,-399.4 c 30.52,-48.4 92.37,-66.4 144.58,-41 l 342.28,167.9 c 45.88,22.6 100.47,10.9 133.22,-27.8 127.16,-153.9 277.81,-286.4 445.65,-394.1 40,-24.8 59.5,-73.2 48,-119.5 l -102.1,-416.7 c -13.7,-55.9 17.3,-112.9 71,-132.9 l 443.4,-161.3 c 53.2,-19.5 112.6,5.6 135.7,56.4 l 9.4,19.7 183.1,394.1 c 19.6,42.3 62.6,67.2 109.1,64 l 0.5,0.1 c 111.2,-7.7 224.8,-5.8 340,6.6 61.3,6.7 121.3,16.5 181,28.5 41.4,8.8 83.7,-6.9 109.3,-40.4 l 258.9,-340.7 c 35.4,-46.7 101,-58.3 149.8,-27.1 l 398,252.5 c 11.2,7.2 20.6,16.5 28.4,26.1 24.5,32.4 30.1,77.5 11.7,115.6 l -142.3,288.5 c -17.1,35.5 -13.9,77.6 7.3,109.6 5.7,8.3 12.6,16.2 20.6,23.1 196.5,164.2 357.7,365.7 475.3,593.4 19.4,38.9 61,61 103.6,58.5 6.1,-0.5 12.3,-1.5 18.4,-3 l 374.3,-91.8 c 54.2,-13.4 109.8,16.3 129.4,68.9 l 3.8,10.3 157.9,433.7 c 19.4,54.9 -5.7,114.8 -58.4,139.3" /></g><g
         transform="scale(1.42958)"
         id="g30"><path
           id="path32"
           style="fill:#c7dcfb;fill-opacity:1;fill-rule:nonzero;stroke:none"
           d="m 15195.7,1351.37 h -1475 c 0.1,11.96 -0.1,23.23 -0.3,33.72 -0.2,12.52 -0.7,23.99 -1.2,34.35 277.3,18.46 496.6,249.3 496.6,531.34 v 1244.35 c 214.4,113.11 465.3,226.5 614.1,229.65 0,0 -358.3,-811.71 -232.6,-811.71 2.8,0 5.7,0.35 8.9,1.19 150.5,37.14 580.9,901.1 580.9,901.1 0,0 199.8,61.98 418.2,61.98 206.6,0 429.8,-55.4 516.4,-270.99 178.3,-443.63 4.8,-696.43 -106.4,-738.61 -111.1,-42.11 -847.4,-119.47 -817,-212.71 20.2,-61.91 254.3,-124.31 487.3,-124.31 117.6,0 234.9,15.88 324.3,55.61 0,0 -216.4,-790.23 -621.9,-799.46 -7.8,-0.14 -15.5,-0.28 -23.1,-0.28 -189.9,0 -323.4,53.72 -438.9,107.37 -115.5,53.72 -213.2,107.38 -331.3,107.38 -5.3,0 -10.7,-0.07 -16,-0.35 -250.6,-10.15 -424.1,-98.42 -292.1,-150.61 37.7,-14.9 98.5,-17.83 171.3,-17.83 23.5,0 48.3,0.28 74,0.63 25.6,0.27 52.2,0.62 79.3,0.62 154.9,0 326,-10.07 442.8,-87.78 32.4,-21.48 63.8,-41.76 92.7,-60.93 17.3,-11.61 33.8,-22.8 49,-33.72" /></g><path
         id="path34"
         style="fill:#dfebf9;fill-opacity:1;fill-rule:nonzero;stroke:none"
         d="m 9634.43,2777.5 c -466.04,471.9 250.48,1304.9 250.48,1304.9 0,0 1337.39,70.3 1467.79,241.3 130.4,171 -1155.1,163.2 -1155.1,163.2 173.4,377.5 1141.6,1033.1 1141.6,1033.1 0,0 1096.1,-715.4 1180.4,-517.5 84.4,197.8 -1002.8,583.8 -1002.8,583.8 305.1,285.4 896.4,373.3 896.4,373.3 892,20.9 872.7,-1125.5 872.7,-1125.5 0,0 385.2,-239.7 975.7,-259.4 v 0 c 0,0 114.8,6.3 288.3,-20.3 l -54.9,-94.2 c -29.8,7 -59.2,12.7 -88.1,17 h -0.5 l -1.3,0.2 c -18.3,2 -44.5,4.8 -76.4,8 h -0.2 -0.1 c -73.2,4 -126.2,8.8 -163.4,14 l -0.3,0.1 c -227.3,16.7 -530.3,26.7 -626.9,-28.1 0,0 -8.6,19 -31.5,45.4 10,-14.5 20.5,-29.6 31.5,-45.4 251.8,-362.7 -160.3,-1203.1 -514.3,-1599 -353.9,-395.8 -366.6,-126.1 -431.5,235.8 -64.8,361.9 284.7,837.5 291.3,1034.3 6.5,196.8 -201.7,24.8 -353.1,-288.3 -151.5,-313.1 61,-637.5 -174.8,-1148.4 -235.7,-511 -1361.1,-349.7 -1361.1,-349.7 298.4,273.9 462.9,980.7 361.1,1070.8 -101.9,90.2 -607.1,-804.1 -722.2,-922.3 -115.1,-118.2 -532.7,-199.1 -998.77,272.9" /><path
         id="path36"
         style="fill:#dfebf9;fill-opacity:1;fill-rule:nonzero;stroke:none"
         d="m 9787.46,8332.2 c 110.97,457.5 881.34,335.9 881.34,335.9 0,0 541.6,-781.2 693.6,-796.1 151.9,-14.9 -332.7,758.3 -332.7,758.3 292.6,36.2 1049.8,-303.6 1049.8,-303.6 0,0 -22.7,-928.7 128.3,-905.8 150.9,23 -21.9,823.4 -21.9,823.4 286.2,-77.6 560,-401.8 560,-401.8 345.6,-530.7 -353.7,-947 -353.7,-947 0,0 -0.9,-322.1 207.6,-685.9 v 0 c 0,0 46.7,-67 95.4,-181.6 l -77.5,-2 c -6.8,20.6 -14.3,40.4 -22.6,59.5 l -0.1,0.3 -0.4,0.9 c -5.6,11.8 -13.7,28.6 -23.7,49.1 h -0.1 v 0.1 c -24.9,45.7 -41.8,79.5 -52.5,103.9 l -0.1,0.2 c -74.7,143.5 -181.8,330.1 -251,368 0,0 8.3,12.3 15.7,36 -5,-11.5 -10.2,-23.4 -15.7,-36 -124.9,-287.4 -786.2,-352.3 -1157.3,-286.4 -371.1,65.9 -213,174.3 -18.7,348.5 194.3,174.3 611.9,140.8 733.1,210.3 121.3,69.5 -60.3,131 -305.8,105.5 -245.6,-25.4 -362.1,-274.8 -758.6,-323.2 -396.5,-48.4 -719.2,691.2 -719.2,691.2 276.7,-77.9 764.9,86.6 781.3,181.8 16.4,95.1 -712.1,66.3 -826.42,91.7 -114.32,25.4 -319.1,247.2 -208.12,704.8" /><g
         transform="scale(1.42078)"
         id="g38"><path
           id="path40"
           style="fill:#cde0fb;fill-opacity:1;fill-rule:nonzero;stroke:none"
           d="m 14999.3,4639.5 c -151.3,0 -511.5,17.31 -695.5,172.86 v 1599.61 c 195.4,12.11 723,293.5 723,293.5 0,0 588.2,-479.03 678.7,-732.97 0,0 -270.7,25.62 -489.2,25.62 -164.1,0 -298.6,-14.43 -266.7,-65.04 74.5,-117.96 934.9,-239.87 934.9,-239.87 0,0 415.5,-579.33 87.3,-857.76 -174.2,-147.74 -330.6,-195.6 -449.2,-195.6 -104.9,0 -180.2,37.44 -211.9,76.44 -64.9,79.53 -320.7,640.56 -404.2,640.56 -3.6,0 -6.9,-1.06 -9.9,-3.17 -70.9,-52.5 -5,-518.66 172.2,-712.78 0,0 -26.2,-1.4 -69.5,-1.4 m -695.5,1893.61 v 521.73 c 17.4,-0.46 35.4,-1.7 54,-3.77 0,0 377.1,-90.59 558,-292.52 0,0 -436.8,-112.9 -612,-225.44" /></g><path
         id="path42"
         style="fill:#ffb27d;fill-opacity:1;fill-rule:nonzero;stroke:none"
         d="m 11098,11284.8 c -50.9,-136.7 -139,-295.4 -231.5,-334.8 -104.8,-44.7 -148.6,-107.9 -148.6,-107.9 l -84.6,49.1 -101.1,58.8 c 0,0 2.3,11.2 7.3,29.5 4.9,18.2 12.5,43.6 22.7,71.7 0,0 31,39.8 12,90 -19,50 -15.2,127.3 17.3,174.5 32.4,47.1 63.7,163.3 83.2,159.8 47.3,-8.1 -23.2,-167.7 -3,-197.3 18.3,-26.8 41.2,-17.6 45.5,-15.6 l 0.7,0.4 c 132.7,58.4 293.6,372.8 364.8,330.4 26.7,-15.9 36.9,-250.4 15.3,-308.6" /><path
         id="path44"
         style="fill:#2b478b;fill-opacity:1;fill-rule:nonzero;stroke:none"
         d="m 10639,11094.4 166.2,-116.8 c 11.7,-8.2 28.1,-5.4 36.4,6.4 l 425.7,605.7 c 8.2,11.8 5.4,28.1 -6.4,36.4 l -166.2,116.8 c -11.7,8.2 -28,5.4 -36.3,-6.4 l -425.7,-605.7 c -8.3,-11.8 -5.4,-28.1 6.3,-36.4" /><path
         id="path46"
         style="fill:#233862;fill-opacity:1;fill-rule:nonzero;stroke:none"
         d="m 10791.2,10987.5 97.4,-68.5 c 8.9,-6.3 21.4,-4.1 27.7,4.9 l 432.8,615.9 c 6.3,8.9 4.1,21.4 -4.8,27.7 l -97.4,68.4 c -8.9,6.3 -21.4,4.1 -27.7,-4.8 l -432.9,-615.9 c -6.2,-9 -4.1,-21.4 4.9,-27.7" /><path
         id="path48"
         style="fill:#233862;fill-opacity:1;fill-rule:nonzero;stroke:none"
         d="m 8254.89,11963.7 c 0,0 845.63,-1475 1152.42,-1746.4 l 1124.89,838.7 c 0,0 163.2,-50.1 234.7,-213.9 0,0 -683.1,-1391.7 -1355.66,-1450.7 -672.57,-59 -1616.53,1668.1 -1616.53,1668.1 l 460.18,904.2" /><path
         id="path50"
         style="fill:#233862;fill-opacity:1;fill-rule:nonzero;stroke:none"
         d="m 6341.25,1931.9 h -488.6 c -61.52,33.4 -116.32,109.8 -133.64,223.9 -23.86,157.4 -200.28,243.2 -238.46,372 -38.1,128.7 157.41,309.9 157.41,309.9 l 32.7,42.1 34.03,43.8 324.29,-76.4 c 0,0 8.04,-77.2 12.9,-175.6 3.54,-71 5.4,-153 1.42,-225 -9.55,-171.6 47.99,-356.5 200.55,-389.9 112.78,-24.7 107.74,-91.6 97.4,-124.8" /><path
         id="path52"
         style="fill:#233862;fill-opacity:1;fill-rule:nonzero;stroke:none"
         d="M 9176.85,1931.9 H 8059.47 c -53.74,65.6 -33.94,307.6 -25.81,386.6 1.68,15.9 2.83,25.2 2.83,25.2 0,0 381.57,305.2 433.98,71.5 1.59,-7.4 3.53,-14.5 5.65,-21.6 66.03,-218.6 362.21,-317.9 533.24,-345.6 111.19,-18 152.29,-75.8 167.49,-116.1" /><path
         id="path54"
         style="fill:#f99746;fill-opacity:1;fill-rule:nonzero;stroke:none"
         d="m 8963.95,8169 c 0,0 -57.94,-722.9 -126.03,-1591.8 -92.56,-1180.4 -203.86,-2630.3 -214.88,-2904.9 -19.03,-477 -95.42,-1239.9 -95.42,-1239.9 0,0 -181.11,-181.3 -543.61,-104.9 0,0 -323.02,1089.1 -415.3,2241.4 -1.42,18.9 -2.86,37.9 -4.29,57 -85.83,1173 -219.3,3643.2 -219.3,3643.2 L 8963.95,8169" /><path
         id="path56"
         style="fill:#ed7d2b;fill-opacity:1;fill-rule:nonzero;stroke:none"
         d="m 8963.95,8169 c 0,0 -57.94,-722.9 -126.03,-1591.8 L 7568.71,4568.9 c -1.42,18.9 -2.86,37.9 -4.29,57 -85.83,1173 -219.3,3643.2 -219.3,3643.2 L 8963.95,8169" /><path
         id="path58"
         style="fill:#f99746;fill-opacity:1;fill-rule:nonzero;stroke:none"
         d="m 8699.36,8083.1 c 0,0 -1044.32,-2617.9 -1730.99,-3848.2 -686.67,-1230.3 -901.26,-1573.6 -901.26,-1573.6 0,0 -393.4,157.3 -429.17,264.6 0,0 262.59,2375.2 722.44,2954.1 259.84,327.2 565.07,1309 579.38,1652.4 14.31,343.3 92.99,1022.8 92.99,1022.8 l 1666.61,-472.1" /><path
         id="path60"
         style="fill:#ffb27d;fill-opacity:1;fill-rule:nonzero;stroke:none"
         d="m 8439.39,11899.5 c -408.08,-128.7 -1114.19,218.8 -1114.19,218.8 0,0 376.26,282.4 356.55,869.5 l 315.54,-254.3 214.33,-172.7 c 0,0 -0.88,-101.8 -24.31,-280.2 -6.18,-47 -13.87,-99.3 -23.59,-156.5 175.18,-96.2 275.67,-224.6 275.67,-224.6" /><path
         id="path62"
         style="fill:#ed975d;fill-opacity:1;fill-rule:nonzero;stroke:none"
         d="m 8211.62,12560.8 c 0,0 -0.88,-101.8 -24.31,-280.2 -237.49,40.7 -506.89,424.6 -506.89,424.6 120.91,34.9 226.8,41.2 316.87,28.3 l 214.33,-172.7" /><path
         id="path64"
         style="fill:#ffb27d;fill-opacity:1;fill-rule:nonzero;stroke:none"
         d="m 8336.42,12570.5 c 0,0 -674.07,-112 -737.34,308.9 -63.28,420.8 -192.9,689.8 234.8,779.1 427.71,89.3 535.66,-58.7 590.95,-194 55.29,-135.4 85.3,-854 -88.41,-894" /><path
         id="path66"
         style="fill:#2b478b;fill-opacity:1;fill-rule:nonzero;stroke:none"
         d="m 9008.97,8108.7 c -12.28,-10.2 -26.54,-16.3 -42.89,-16.3 -153.24,2.1 -600.13,-83 -978.24,-44.2 -318.78,30.6 -600.92,125 -903.91,260.9 -40.24,18 -132.85,67.4 -130.76,112.4 1.35,49.2 6.24,120.6 12.39,210.6 21.44,312.7 58.82,850.7 22.38,1471.2 -6.56,115.6 -10,230.2 -10.41,343.1 -3.13,841.1 163.66,1580.9 498.78,1831.2 28.63,20.5 204.36,-65.3 365.83,-145 149.19,-73.6 298.37,-81.7 439.33,-53.2 l 140.97,-124.6 c 171.67,-159.4 359.68,-376 441.41,-705 69.54,-280 110.36,-784.8 132.84,-1307.9 10.2,-237.1 18.43,-476.2 20.51,-703.1 v -8.1 c 1.98,-22.5 1.98,-47 1.98,-69.5 8.22,-582.4 0,-1044.2 -10.21,-1052.5" /><path
         id="path68"
         style="fill:#233862;fill-opacity:1;fill-rule:nonzero;stroke:none"
         d="m 6965.56,8632.1 c 21.44,312.7 58.82,850.7 22.38,1471.2 -6.56,115.6 -10,230.2 -10.41,343.1 139.6,338.6 253.71,584.2 253.71,584.2 h 351.88 c 0,0 257.98,-1762.1 -617.56,-2398.5" /><path
         id="path70"
         style="fill:#233862;fill-opacity:1;fill-rule:nonzero;stroke:none"
         d="m 5163.06,6635 1500.75,-213.8 c 195.32,-27.9 377.9,109.2 405.73,304.5 l 92.68,650.3 c 27.83,195.4 -109.2,377.9 -304.52,405.8 l -1500.76,213.8 c -195.32,27.9 -377.9,-109.2 -405.73,-304.5 l -92.67,-650.4 c -27.84,-195.3 109.19,-377.9 304.52,-405.7" /><path
         id="path72"
         style="fill:#2b478b;fill-opacity:1;fill-rule:nonzero;stroke:none"
         d="m 5770.19,8081.7 c 2.82,19.6 18.2,34.5 36.86,37.5 4.33,0.7 8.75,0.8 13.34,0.1 l 66.64,-9.4 246.95,-35.3 134.61,-19.2 c 24.22,-3.4 41.11,-25.9 37.66,-50.1 l -19.98,-140.3 -536.06,76.4 z m 1172.26,-493.8 v 0.1 c -42.16,105.5 -133.2,188.8 -248.63,217.1 h -0.09 l -0.26,0.1 c -11.32,2.8 -22.81,5.1 -34.65,6.7 l -298.83,42.6 19.97,140.3 c 4.51,31.3 -3.53,62.6 -22.63,88 -19.09,25.4 -46.93,41.9 -78.22,46.4 l -77.95,11.1 -313.77,44.7 -56.57,8.1 c -64.79,9.2 -125.16,-36 -134.35,-100.9 l -19.97,-140.3 -515.82,73.5 c -196.05,27.9 -379.27,-109.6 -407.29,-305.6 l -93.68,-658 c -27.94,-196 109.59,-379.3 305.63,-407.2 L 6463.4,6441.1 c 26.42,-3.8 52.59,-4.5 78.13,-2.5 h 0.09 0.18 c 41.01,3.1 80.43,13.3 116.93,29.5 110.13,48.6 193.75,151.3 211.95,278.7 l 93.78,657.9 c 9.1,64.1 0.53,126.8 -22.01,183.2" /><path
         id="path74"
         style="fill:#ffb27d;fill-opacity:1;fill-rule:nonzero;stroke:none"
         d="m 6304.29,8571.5 c 0,0 -78.82,-104.9 -81.95,-146.9 -21.18,-284.3 108.73,-323.6 -227.63,-481.6 0,0 -143.59,-54.7 -146.03,56.7 -2.44,111.5 99.65,113.3 80.98,269.4 -21.53,180 -19.36,181.7 98.79,275.7 l 78.24,129.3 197.6,-102.6" /><path
         id="path76"
         style="fill:#2b478b;fill-opacity:1;fill-rule:nonzero;stroke:none"
         d="m 6103.86,8491.1 c 126.71,-24.7 264.07,-14.7 264.07,-14.7 0,0 376.19,1162.1 424.6,1268.2 48.42,106.2 1117.4,1362.7 1117.4,1362.7 l -445.33,1114.4 c 0,0 -1156.2,-1931.3 -1273.6,-2202.7 -194,-448.4 -261.34,-1453.9 -261.34,-1453.9 0,0 74.67,-54.6 174.2,-74" /><path
         id="path78"
         style="fill:#2b478b;fill-opacity:1;fill-rule:nonzero;stroke:none"
         d="m 7598.53,12919.9 c 0,0 69.17,11.5 58.01,106.8 -11.16,95.3 -11.02,219.8 66.45,196.6 77.47,-23.2 81.32,-85.2 113.15,-49 31.83,36.2 32.4,188.8 262.9,199.4 230.49,10.7 324.16,-69.6 431.35,-22.4 107.18,47.1 112.84,209.3 112.84,209.3 0,0 -30.48,-57.9 -76.53,-76.3 0,0 178.82,244.6 -28.21,412.3 -207.03,167.7 -418.13,57.9 -537.97,50.6 -263.97,-15.9 -434.49,-31.8 -520.73,-205.3 -86.24,-173.4 -50.65,-655.1 118.74,-822" /><path
         id="path80"
         style="fill:#ffb27d;fill-opacity:1;fill-rule:nonzero;stroke:none"
         d="m 6179.96,8446.5 c 0,0 75.9,-79.1 80.68,-112 15.38,-105.7 50.66,-151.3 32.98,-162.8 -36.75,-23.9 -85.41,54.3 -108.64,124.5 -23.24,70.2 -5.02,150.3 -5.02,150.3" /><g
         transform="scale(1.6039)"
         id="g82"><path
           id="path84"
           style="fill:#233862;fill-opacity:1;fill-rule:nonzero;stroke:none"
           d="m 15339.8,8487.24 c 0,0 125.5,0 255.4,-82.93 102.1,-65.16 333,-394.82 409.1,-590.99 76,-196.16 -82.5,-281.09 30.8,-393.67 111.9,-111.26 264.9,-425.04 5.3,-579.13 -146.6,-87.07 -407.5,182.09 -575.1,220.12 -167.6,38.02 -616.1,-307.53 -734.1,-198.89 -118,108.65 -236.1,295.3 118.3,531.59 91.6,61.01 -311.6,99.21 -139.1,536.66 119,301.52 330.5,565.82 629.4,557.24" /></g><g
         transform="scale(1.39031)"
         id="g86"><path
           id="path88"
           style="fill:#ffb27d;fill-opacity:1;fill-rule:nonzero;stroke:none"
           d="m 16225.5,7606.77 c 0,5.08 74.5,159.22 50.8,171.07 -23.7,11.86 -66.2,10.06 -71.1,-16.94 -5,-27 20.3,-154.13 20.3,-154.13" /></g><g
         transform="scale(1.55267)"
         id="g90"><path
           id="path92"
           style="fill:#233862;fill-opacity:1;fill-rule:nonzero;stroke:none"
           d="m 15525.2,8526.7 c 0,0 326.7,329.03 533.9,28.1 0,0 127.9,37.2 183.8,-225.91 57.1,-268.45 -30.1,-432.56 -122.4,-382.13 -59.2,32.34 -104,-71.26 -104,-71.26 l -491.3,651.2" /></g><g
         transform="scale(1.46944)"
         id="g94"><path
           id="path96"
           style="fill:#ffb27d;fill-opacity:1;fill-rule:nonzero;stroke:none"
           d="m 15891.7,6365.23 c -328.8,121.14 -645.4,683.78 -645.4,683.78 l 103.7,72.58 c 86.3,-126.33 474.9,-368.86 474.9,-368.86 8.8,106.42 21.7,203.02 37.6,290.51 107.9,594.6 354.6,770.74 420.8,808.14 10.7,6.07 16.7,8.44 16.7,8.44 0,0 -0.2,-4.37 -0.7,-12.66 -0.9,-17.9 -3,-53.96 -6.5,-103.37 -25.7,-368.13 -126.4,-1479.82 -401.1,-1378.56" /></g><g
         transform="scale(1.58396)"
         id="g98"><path
           id="path100"
           style="fill:#ffb27d;fill-opacity:1;fill-rule:nonzero;stroke:none"
           d="m 16216.8,5341.79 c -150.7,337.89 -222.8,433.47 -225.3,539.79 -2,84.09 39.4,174.81 120,397.23 18.9,52.44 32.1,106.34 40.1,160.82 63.7,428.85 -185.4,898.11 -339.5,929.7 -66.6,16.08 -114.5,160.56 -113.6,410.14 l -19.3,-3.8 -324.5,-64.27 c 0,0 7.3,-102.14 7.5,-198.35 0.2,-80.19 13.6,-164.6 -22.8,-165.76 -23.3,-2.11 -37.1,-3.51 -37.1,-3.51 0,0 -270.6,-375.82 -293.4,-725.35 -22.8,-349.54 216.7,-501.37 -1.8,-1199.87 -223.1,-713.4 1292.9,-263.51 1209.7,-76.77" /></g><g
         transform="scale(1.52363)"
         id="g102"><path
           id="path104"
           style="fill:#e8945b;fill-opacity:1;fill-rule:nonzero;stroke:none"
           d="m 15962.7,8016.75 c 0,0 7.6,-106.18 7.8,-206.21 188.9,5.32 288.6,177.56 329.5,273.02 l -337.3,-66.81" /></g><g
         transform="scale(1.53994)"
         id="g106"><path
           id="path108"
           style="fill:#233862;fill-opacity:1;fill-rule:nonzero;stroke:none"
           d="m 16161.8,8034.27 c 0,0 97.9,154.68 121.4,286.95 16.8,94.42 -31.3,444.44 -383,394.03 0,0 -102.2,-10.06 -198.2,-74.92 -76.4,-51.57 -186.6,-162.92 -63.4,-468.36 l 32,-103.17 491.2,-34.53" /></g><g
         transform="scale(1.53342)"
         id="g110"><path
           id="path112"
           style="fill:#ffb27d;fill-opacity:1;fill-rule:nonzero;stroke:none"
           d="m 15798.1,7871.45 c 0,0 443.8,-7.33 444.1,269.16 0.3,276.48 57.8,461.74 -225.6,478.11 -283.4,16.37 -338.5,-89.08 -361.1,-181.34 -22.5,-92.26 27.1,-556.9 142.6,-565.93" /></g><g
         transform="scale(1.54188)"
         id="g114"><path
           id="path116"
           style="fill:#233862;fill-opacity:1;fill-rule:nonzero;stroke:none"
           d="m 15727.7,8578.17 c 0,0 120.8,-322.59 306.3,-370.29 185.5,-47.7 266,2 266,2 0,0 -142.3,113.02 -171.8,310.31 0,0 -309.4,211.51 -400.5,57.98" /></g><g
         transform="scale(1.49058)"
         id="g118"><path
           id="path120"
           style="fill:#233862;fill-opacity:1;fill-rule:nonzero;stroke:none"
           d="m 16300,8846.3 c 0,0 -62.9,-37.52 -115.6,-117.89 -41.7,-63.48 -83.2,-119.82 -77,-245.49 0,0 -94.2,226.8 11.7,355.11 112.2,136.04 180.9,8.27 180.9,8.27" /></g><g
         transform="scale(1.55399)"
         id="g122"><path
           id="path124"
           style="fill:#163560;fill-opacity:1;fill-rule:nonzero;stroke:none"
           d="m 16141.8,2139.59 c -110.2,-438.35 -276.1,-774.39 -276.1,-774.39 l -144.4,10.04 c 0,0 70.8,336.94 66.7,792.22 -2.8,318.27 -42.2,694.47 -167.9,1053.61 -432.2,1234.24 -362.4,2132.51 -362.4,2132.51 l 812.7,-95.04 37.9,-4.44 c 3.3,-373.24 13,-880 21.4,-1276.27 7.5,-356.37 14.1,-623.3 14.1,-623.3 156.2,-336.55 99.4,-811.52 -2,-1214.94" /></g><g
         transform="scale(1.63018)"
         id="g126"><path
           id="path128"
           style="fill:#ffb27d;fill-opacity:1;fill-rule:nonzero;stroke:none"
           d="m 16300,4841.54 -125.4,-37.6 c 0,0 -413.4,686.05 -451,864.56 -12.3,58.09 -42.4,174.4 -77.5,304.69 -72.5,269.86 -166.3,600.04 -166.3,600.04 l -30.8,133.66 -105.3,455.8 c 0,0 201.6,-20.59 319.4,-69.88 39.1,-16.28 68.9,-35.73 79.3,-58.54 86.5,-190.42 173,-670.98 233.8,-1013.78 33.8,-191.09 59.7,-339.35 73.2,-370.76 37.6,-87.72 152.5,-570.12 250.6,-808.19" /></g><g
         transform="scale(1.58629)"
         id="g130"><path
           id="path132"
           style="fill:#1c468a;fill-opacity:1;fill-rule:nonzero;stroke:none"
           d="m 16269.9,2164.61 c -45.8,-488.56 -247.4,-804.45 -247.4,-804.45 l -67.6,-49.17 c 0,0 -64,344.2 -109.2,753.7 -43.1,389.22 -102.3,801.12 -169.2,926.82 -265.5,498.59 -345.4,2380.72 -345.4,2380.72 l 807.2,40.03 c 81.2,-136.48 116.6,-360.34 125,-614.83 21.3,-642.38 -129.8,-1479.94 -152.4,-1601.1 v -0.32 c -1.8,-9.33 0.9,-18.53 5.3,-27.04 160.6,-317.91 183.8,-681.65 153.7,-1004.36" /></g><g
         transform="scale(1.60174)"
         id="g134"><path
           id="path136"
           style="fill:#f99746;fill-opacity:1;fill-rule:nonzero;stroke:none"
           d="m 16137.1,5041.22 c 1.3,-26.91 -0.1,-48.45 -5,-63.87 -17,-53.51 -75.5,-77.92 -216.7,-63.31 -86.3,8.99 -124.8,153.65 -142,277.01 -51.8,-176.55 -124.4,-275.63 -218.2,-296.42 -136.9,-30.47 -827.5,-114.44 -872.7,213.89 -49.8,361.05 99.1,1000.42 107.3,1345.15 -20.3,122.24 -27.2,228.34 -25,319.47 5.7,245.56 84.8,388.23 140.3,443.66 97.9,37.27 253.2,48.4 252.6,47.46 -11.7,-20.89 -51.2,-141.84 -44.7,-203.6 20.5,-191.73 218.2,-171.04 392.2,-55.07 128.5,85.67 201.2,272.34 201.2,272.34 0,0 256.6,-20.9 316.7,-119.17 115.1,-188.05 204.9,-687.78 276.9,-1039.15 -174.5,-96.15 -327,-67.55 -374.3,-54.82 61.9,-404.68 202.1,-839.15 211.4,-1023.57" /></g><g
         transform="scale(1.38487)"
         id="g138"><path
           id="path140"
           style="fill:#ffb27d;fill-opacity:1;fill-rule:nonzero;stroke:none"
           d="m 16287.3,7556.46 c 0,15.18 12.7,234.71 -26.4,280.82 -39.1,46.12 -118.9,111.7 -144,109.68 -25.1,-2.02 -123.2,-132.42 -93.7,-232.35 29.5,-99.94 154,-235.16 154,-235.16 l 110.1,77.01" /></g><g
         transform="scale(1.40002)"
         id="g142"><path
           id="path144"
           style="fill:#f1a34f;fill-opacity:1;fill-rule:nonzero;stroke:none"
           d="m 16288.3,7740.34 -225,-67.45 c -7.5,-2.23 -15.4,2.01 -17.6,9.47 l -128.6,429.1 c -2.2,7.47 2,15.33 9.5,17.57 l 225,67.45 c 7.5,2.23 15.3,-2 17.5,-9.47 l 128.7,-429.1 c 2.2,-7.46 -2,-15.33 -9.5,-17.57" /></g><g
         transform="scale(1.39577)"
         id="g146"><path
           id="path148"
           style="fill:#d86713;fill-opacity:1;fill-rule:nonzero;stroke:none"
           d="m 16279.2,7746.3 -204.7,-61.35 c -13.4,-3.99 -27.3,3.55 -31.3,16.83 l -122.7,409.43 c -4,13.28 3.5,27.28 16.8,31.25 l 204.8,61.37 c 13.2,3.98 27.2,-3.56 31.2,-16.84 l 122.8,-409.43 c 3.9,-13.28 -3.6,-27.27 -16.9,-31.26" /></g><g
         transform="scale(1.52807)"
         id="g150"><path
           id="path152"
           style="fill:#1a2d4c;fill-opacity:1;fill-rule:nonzero;stroke:none"
           d="m 16219.4,1265.19 h -93.8 c -31.4,4.97 -54.6,14.07 -86.8,18.26 -48.9,6.41 -71.5,-13.61 -76,-18.26 -0.5,-0.59 -0.8,-0.92 -0.8,-0.92 h -398.4 c -10,14.27 -0.3,47.45 9.1,71.86 6.3,16.55 20.1,29.12 37.2,34.09 42.3,12.24 125.5,23.1 201.8,92.15 43,38.74 207.2,142.53 207.2,142.53 l 0.9,0.19 c 3.6,-0.06 20.8,-5.3 95.5,-68.38 38.6,-32.59 104.5,45.94 104.5,45.94 0,0 12.3,-10.21 21.6,-29.26 7.4,-15.05 12.8,-35.66 8.5,-61.18 -5.9,-35.87 13.3,-102.55 28.6,-147.71 9.2,-27.29 17,-46.72 17,-46.72 0,0 4.5,-22.51 -76.1,-32.59" /></g><g
         transform="scale(1.52258)"
         id="g154"><path
           id="path156"
           style="fill:#466aa5;fill-opacity:1;fill-rule:nonzero;stroke:none"
           d="m 16300,1559 c -22.5,-15.83 -69.9,-47.02 -101.3,-51.09 -42.5,-5.59 -121.9,102.78 -121.9,102.78 l 0.8,0.2 c 3.6,-0.07 20.9,-5.32 95.9,-68.64 38.8,-32.7 104.8,46.11 104.8,46.11 0,0 12.4,-10.25 21.7,-29.36" /></g><g
         transform="scale(1.52807)"
         id="g158"><path
           id="path160"
           style="fill:#3b6096;fill-opacity:1;fill-rule:nonzero;stroke:none"
           d="m 16219.4,1265.19 h -93.8 c -31.4,4.97 -54.6,14.07 -86.8,18.26 -48.9,6.41 -71.5,-13.61 -76,-18.26 -0.5,-0.59 -0.8,-0.92 -0.8,-0.92 h -398.4 c -10,14.27 -0.3,47.45 9.1,71.86 12,10.73 15.5,-46.73 22.2,-55.89 6.6,-9.16 324.9,-3.34 343.3,10.01 18.4,13.35 73.5,36.78 150.4,18.39 66.8,-15.97 165.5,25 189.9,35.86 9.2,-27.29 17,-46.72 17,-46.72 0,0 4.5,-22.51 -76.1,-32.59" /></g><g
         transform="scale(1.57499)"
         id="g162"><path
           id="path164"
           style="fill:#233862;fill-opacity:1;fill-rule:nonzero;stroke:none"
           d="m 16221.7,1227.5 h -91 c -30.4,4.83 -52.9,13.65 -84.2,17.72 -47.5,6.22 -69.3,-13.21 -73.6,-17.72 -0.6,-0.57 -0.9,-0.89 -0.9,-0.89 h -386.5 c -9.7,13.84 -0.4,46.03 8.8,69.72 6.1,16.06 19.6,28.25 36.2,33.08 40.9,11.87 121.8,22.41 195.7,89.4 41.7,37.58 201,138.28 201,138.28 l 0.9,0.19 c 3.5,-0.06 20.2,-5.14 92.7,-66.35 37.4,-31.62 101.3,44.58 101.3,44.58 0,0 12,-9.91 20.9,-28.39 7.3,-14.6 12.5,-34.6 8.4,-59.36 -5.8,-34.8 12.8,-99.5 27.6,-143.31 9.1,-26.47 16.6,-45.33 16.6,-45.33 0,0 4.4,-21.84 -73.9,-31.62" /></g><g
         transform="scale(1.56948)"
         id="g166"><path
           id="path168"
           style="fill:#466aa5;fill-opacity:1;fill-rule:nonzero;stroke:none"
           d="m 16300,1512.41 c -21.8,-15.36 -67.8,-45.62 -98.3,-49.57 -41.2,-5.42 -118.3,99.71 -118.3,99.71 l 0.9,0.19 c 3.5,-0.06 20.2,-5.16 93,-66.58 37.6,-31.73 101.7,44.73 101.7,44.73 0,0 12,-9.94 21,-28.48" /></g><g
         transform="scale(1.57499)"
         id="g170"><path
           id="path172"
           style="fill:#466aa5;fill-opacity:1;fill-rule:nonzero;stroke:none"
           d="m 16221.7,1227.5 h -91 c -30.4,4.83 -52.9,13.65 -84.2,17.72 -47.5,6.22 -69.3,-13.21 -73.6,-17.72 -0.6,-0.57 -0.9,-0.89 -0.9,-0.89 h -386.5 c -9.7,13.84 -0.4,46.03 8.8,69.72 11.7,10.41 15,-45.34 21.5,-54.22 6.5,-8.89 315.3,-3.24 333.1,9.71 17.8,12.95 71.4,35.68 146,17.84 64.8,-15.49 160.5,24.26 184.1,34.79 9.1,-26.47 16.6,-45.33 16.6,-45.33 0,0 4.4,-21.84 -73.9,-31.62" /></g><g
         transform="scale(1.58572)"
         id="g174"><path
           id="path176"
           style="fill:#ef7e29;fill-opacity:1;fill-rule:nonzero;stroke:none"
           d="m 16300,5092.12 c -97.9,154.32 -155.3,341.11 -232,554.95 -197.6,550.92 -167.6,852.01 -119.7,863.07 47.9,11.07 138.2,-384.11 138.2,-384.11 62.5,-408.77 204.2,-847.62 213.5,-1033.91" /></g><g
         transform="scale(1.47223)"
         id="g178"><path
           id="path180"
           style="fill:#f99746;fill-opacity:1;fill-rule:nonzero;stroke:none"
           d="m 16136.7,6950.01 c -16.6,0.95 -32.8,3.45 -48.6,7.31 -3.5,0.87 -7.1,1.81 -10.6,2.84 -42,12.04 -80.1,33.2 -112.6,56.5 -70.6,50.48 -148.8,137.07 -148.8,137.07 137.6,612.7 400.1,697.92 400.1,697.92 0,0 83.8,-910.32 -79.5,-901.64" /></g><g
         transform="scale(1.38155)"
         id="g182"><path
           id="path184"
           style="fill:#ffb27d;fill-opacity:1;fill-rule:nonzero;stroke:none"
           d="m 16132.1,7949.16 c 0,0 95,146.11 118.2,137.98 33.1,-11.6 -86.1,-197.01 -86.1,-197.01 0,0 88.3,138.55 102.1,128.14 31.5,-23.75 -18.6,-110.8 -68.2,-177.54 0,0 88.9,81.35 91.7,66.7 10.2,-51.32 -97.5,-175.67 -97.5,-175.67 l -60.2,137.45 v 79.95" /></g><g
         transform="scale(1.36733)"
         id="g186"><path
           id="path188"
           style="fill:#ffb27d;fill-opacity:1;fill-rule:nonzero;stroke:none"
           d="m 16228,7894.8 c 4.6,18.06 28,370.61 38.1,337.16 10.1,-33.45 33.9,-218.3 33.9,-218.3 l -72,-118.86" /></g><g
         transform="scale(1.60174)"
         id="g190"><path
           id="path192"
           style="fill:#f99746;fill-opacity:1;fill-rule:nonzero;stroke:none"
           d="m 15709.8,6597.05 156.4,-568.84 c 0,0 325.9,-22.48 433.8,91.4 l -197.2,506.42 -393,-28.98" /></g><g
         transform="scale(1.45519)"
         id="g194"><path
           id="path196"
           style="fill:#ef7e29;fill-opacity:1;fill-rule:nonzero;stroke:none"
           d="m 16276.5,7038.78 c -3.6,0.87 -7.2,1.83 -10.8,2.87 -42.5,12.18 -81,33.58 -113.9,57.16 8.6,18.96 22.1,42.19 42.4,61.07 42,39.15 76.8,198.7 91.4,185.66 14.4,-13.05 -9.1,-306.76 -9.1,-306.76" /></g><g
         transform="scale(1.65533)"
         id="g198"><path
           id="path200"
           style="fill:#ffb27d;fill-opacity:1;fill-rule:nonzero;stroke:none"
           d="m 16052.4,4768.01 c 0,0 148.9,-98.96 171.7,-140.7 22.7,-41.74 75.9,-195.37 75.9,-195.37 0,0 -37.9,-5.68 -75.9,60.71 -37.9,66.39 -163.1,60.65 -204.8,96.72 -41.8,36.01 -90.3,141.6 -90.3,141.6 l 123.4,37.04" /></g><g
         transform="scale(1.63567)"
         id="g202"><path
           id="path204"
           style="fill:#ffb27d;fill-opacity:1;fill-rule:nonzero;stroke:none"
           d="m 16136.7,4754.8 c 0,0 25.1,-118 55.8,-152.54 30.7,-34.54 73,-92.13 90.2,-76.79 17.3,15.35 -19.2,143.98 -19.2,143.98 l -126.8,85.35" /></g><g
         transform="scale(1.65918)"
         id="g206"><path
           id="path208"
           style="fill:#ffb27d;fill-opacity:1;fill-rule:nonzero;stroke:none"
           d="m 16165.6,4603.3 c 3.8,-5.66 134.4,-144.47 134.4,-144.47 0,0 -47.3,-21.39 -60.6,0 -13.2,21.46 -73.8,144.47 -73.8,144.47" /></g><g
         transform="scale(1.24679)"
         id="g210"><path
           id="path212"
           style="fill:#afcdfb;fill-opacity:1;fill-rule:nonzero;stroke:none"
           d="M 16300,12503.1 V 2236.79 c 0,-337.26 -273.3,-610.61 -610.5,-610.61 h -5366.7 c -337.28,0 -610.62,273.35 -610.62,610.61 V 12503.1 c 0,337.1 273.34,610.5 610.62,610.5 h 5366.7 c 337.2,0 610.5,-273.4 610.5,-610.5" /></g><g
         transform="scale(1.2076)"
         id="g214"><path
           id="path216"
           style="fill:#f9ddbf;fill-opacity:1;fill-rule:nonzero;stroke:none"
           d="m 16300,8338.74 c 0,-572.19 -167.3,-1105.23 -455.7,-1552.89 -94.2,-146.24 -201.5,-283.46 -320,-409.82 -124.9,-133.49 -262.5,-254.97 -410.8,-362.54 -13.6,-9.93 -27.2,-19.79 -41.1,-29.23 -465.7,-325.85 -1032.5,-516.98 -1643.8,-516.98 -422.9,0 -824.3,91.42 -1185.7,255.47 -44.8,20.29 -88.9,41.82 -132.4,64.43 -101.1,52.17 -198.6,110.3 -292.2,173.81 -107.2,72.71 -209.3,152.53 -305.4,238.82 -586.7,525.59 -955.8,1289.25 -955.8,2138.93 0,1585.76 1285.5,2871.26 2871.5,2871.26 1585.7,0 2871.4,-1285.5 2871.4,-2871.26" /></g><g
         transform="scale(1.17384)"
         id="g218"><path
           id="path220"
           style="fill:#233862;fill-opacity:1;fill-rule:nonzero;stroke:none"
           d="m 16300,6981.02 c -96.9,-150.45 -207.3,-291.61 -329.2,-421.61 -128.5,-137.33 -270,-262.3 -422.6,-372.97 -14,-10.22 -28,-20.36 -42.3,-30.07 -351.2,68.5 -777.2,516.17 -1138.6,704.7 -64.5,33.56 -126.9,58.87 -186.3,72.41 -209.7,47.54 -575.9,-118.67 -946.8,-290.67 -221.3,-102.48 -444.3,-207.1 -636.7,-269.8 -1.8,-0.6 -3.3,-1.19 -5,-1.7 -173.4,-55.97 -321.8,-77.35 -421.5,-31.69 -19.6,8.86 -37.3,20.53 -52.9,34.84 -65.6,60.49 -131.3,129.57 -186.6,206.59 -224.3,311.88 -279.7,754.79 519.2,1287.4 257.2,171.31 -907,114.58 -422.1,1343.88 334.2,847.37 959.9,1754.27 1799.7,1730.17 0,0 352.7,0 717.7,-233.1 286.9,-183.1 696.6,-1016.2 910.4,-1567.37 213.7,-551.3 -204,-900.62 133,-1197 351.6,-309.07 644.7,-646.68 710.6,-964.01" /></g><g
         transform="scale(1.08487)"
         id="g222"><path
           id="path224"
           style="fill:#233862;fill-opacity:1;fill-rule:nonzero;stroke:none"
           d="m 14019.3,11134.7 c 0,0 961.6,968.5 1571.6,82.7 0,0 376.6,109.5 541.2,-665 167.9,-790.14 -88.8,-1273.21 -360.5,-1124.78 -174.3,95.19 -306.2,-209.74 -306.2,-209.74 l -1446.1,1916.82" /></g><g
         transform="scale(1.1197)"
         id="g226"><path
           id="path228"
           style="fill:#ffb27d;fill-opacity:1;fill-rule:nonzero;stroke:none"
           d="m 16300,6485.58 c -14.6,-10.72 -29.4,-21.35 -44.4,-31.53 -502.2,-351.43 -1113.5,-557.56 -1772.8,-557.56 -456.1,0 -889,98.6 -1278.8,275.52 -48.2,21.88 -95.8,45.11 -142.7,69.49 38.5,146.02 86.8,289.45 140.4,426.9 v 0.18 c 1.6,4.19 3.3,8.39 4.9,12.59 253.8,646.6 620.4,1155.67 620.4,1155.67 0,0 0.6,0.08 2,0.08 l 1.8,0.27 c 0.9,0.18 2,0.27 3.3,0.45 h 0.3 c 1,0.09 2.3,0.18 3.8,0.36 1.6,0.26 3.3,0.35 5.2,0.53 5,0.36 11.5,0.99 18.8,1.88 2.3,0.26 4.5,0.53 6.8,0.62 2,0.18 3.9,0.36 5.9,0.54 2,0.27 3.8,0.36 5.7,0.53 1.4,0.09 2.8,0.18 4.4,0.36 1.6,0.09 3.1,0.27 4.5,0.36 13.4,1.25 28.7,2.68 45.7,4.2 117.6,19.82 66.9,248.9 66.3,482.18 -0.2,52.6 -1,105.56 -2.3,157.27 -0.3,8.49 -0.5,17.06 -0.8,25.64 -0.1,7.76 -0.4,15.45 -0.6,22.95 -0.3,6.7 -0.4,13.39 -0.6,19.91 0,2.51 -0.1,5.09 -0.3,7.51 -0.5,16.52 -1.2,32.77 -1.8,48.67 -0.5,13.31 -1,26.17 -1.5,38.67 -2.7,60.2 -5.5,113.78 -7.9,156.2 -0.3,4.83 -0.5,9.56 -0.8,14.2 l -0.1,1.26 c -0.2,2.94 -0.2,5.71 -0.5,8.57 -0.4,6.87 -0.9,13.39 -1.3,19.38 -0.2,4.28 -0.5,8.21 -0.8,12.05 -0.2,5.09 -0.5,10.01 -0.9,14.29 v 2.06 c -0.5,6.79 -0.9,12.41 -1.1,16.88 -0.1,1.52 -0.3,2.86 -0.4,4.2 -0.3,4.91 -0.5,7.5 -0.5,7.5 l 890.7,176.36 53.6,10.58 56.1,11.09 v -0.63 c -0.2,-58.67 0.8,-115.42 2.7,-170.12 21.5,-621.55 171.4,-981.82 286.1,-1012.01 43.1,-21.97 139.6,-34.38 232.8,-45.28 98,-11.34 192.4,-21.17 218,-38.67 271.3,-184.16 490.7,-712.25 580.7,-1352.15" /></g><g
         transform="scale(1.02515)"
         id="g230"><path
           id="path232"
           style="fill:#e8945b;fill-opacity:1;fill-rule:nonzero;stroke:none"
           d="m 15268.6,9727.81 c 0,0 23.5,-324.63 24.1,-630.34 577.2,16.19 882.2,542.75 1007.3,834.53 l -1031.4,-204.19" /></g><g
         transform="scale(1.0587)"
         id="g234"><path
           id="path236"
           style="fill:#233862;fill-opacity:1;fill-rule:nonzero;stroke:none"
           d="m 15886.6,9726.01 c 0,0 292.9,462.69 363.1,858.39 50.3,282.5 -93.7,1329.6 -1145.9,1178.8 0,0 -305.6,-30.1 -592.8,-224.1 -228.5,-154.3 -558.2,-487.4 -189.6,-1401.2 l 95.8,-308.63 1469.4,-103.26" /></g><g
         transform="scale(1.04528)"
         id="g238"><path
           id="path240"
           style="fill:#ffb27d;fill-opacity:1;fill-rule:nonzero;stroke:none"
           d="m 14785.6,9256.45 c 0,0 1339.1,-22.1 1340.1,812.15 0.9,834.2 174.3,1393.1 -680.7,1442.5 -855,49.4 -1021.4,-268.8 -1089.5,-547.1 -68,-278.4 81.7,-1680.29 430.1,-1707.55" /></g><g
         transform="scale(1.06268)"
         id="g242"><path
           id="path244"
           style="fill:#233862;fill-opacity:1;fill-rule:nonzero;stroke:none"
           d="m 14592.2,11342.7 c 0,0 360.7,-962.6 914.2,-1104.9 553.4,-142.4 793.6,5.9 793.6,5.9 0,0 -424.6,337.3 -512.7,926 0,0 -923,631.2 -1195.1,173" /></g><path
         id="path246"
         style="fill:#233862;fill-opacity:1;fill-rule:nonzero;stroke:none"
         d="m 15601.9,11970.7 c 0,0 -192.8,-115.1 -354.4,-361.5 -127.7,-194.6 -255,-367.3 -236,-752.6 0,0 -288.8,695.4 35.7,1088.7 344.1,417.1 554.7,25.4 554.7,25.4" /><g
         transform="scale(1.15013)"
         id="g248"><path
           id="path250"
           style="fill:#f99746;fill-opacity:1;fill-rule:nonzero;stroke:none"
           d="m 16012.2,7332.88 c -217.4,289.88 -920.9,335.44 -920.9,335.44 l -0.2,-0.35 c -5.2,-13.91 -152.2,-404.65 -427.7,-665.49 -41.9,-39.73 -86.8,-76.51 -134.7,-108.33 -391.7,-261.1 -825.7,-353.61 -1021.8,-114.42 -53.2,65.12 -89,154.76 -101.5,272.14 -18.7,176.94 94.6,523.33 128,583.15 0.5,0.78 -4.2,0.61 -11.4,0.26 -1.4,-0.09 -2.9,-0.26 -4.5,-0.35 -1.5,-0.17 -2.8,-0.26 -4.2,-0.35 -1.8,-0.17 -3.6,-0.26 -5.6,-0.52 -1.9,-0.17 -3.7,-0.35 -5.7,-0.52 -2.3,-0.09 -4.4,-0.35 -6.6,-0.61 -6.5,-0.52 -12.9,-1.22 -18.4,-1.82 -1.8,-0.18 -3.4,-0.27 -5,-0.53 -1.4,-0.17 -2.6,-0.26 -3.7,-0.34 h -0.3 c -1.2,-0.18 -2.3,-0.27 -3.2,-0.44 l -1.8,-0.26 c -1.3,0 -1.9,-0.09 -1.9,-0.09 -181,-23.82 -544.3,-63.29 -671.5,-144.76 l -0.1,-0.09 c -7.3,-3.74 -329.1,-171.72 -612.1,-767.91 -30.3,-63.9 -60.2,-132.85 -89.3,-207.11 101,-90.59 208.1,-174.41 320.7,-250.75 98.3,-66.69 200.7,-127.72 306.8,-182.5 45.7,-23.74 92,-46.34 139,-67.64 379.5,-172.24 800.9,-268.23 1245,-268.23 641.8,0 1236.9,200.67 1725.8,542.8 14.7,9.91 29,20.26 43.3,30.69 155.7,112.95 300.1,240.5 431.3,380.66 -84.5,269.36 -179.2,493.24 -287.8,638.27" /></g><path
         id="path252"
         style="fill:#ffd9be;fill-opacity:1;fill-rule:nonzero;stroke:none"
         d="m 15216.9,11331.7 v 55.8 l 43.9,-34.4 c -11.6,-11.4 -26.9,-19.2 -43.9,-21.4 m -19.9,0 c -14.9,2 -28.4,8.1 -39.3,17.2 l 39.3,36.4 v -53.6 m -52.9,31.9 c -8.9,12.6 -14.1,27.9 -14.1,44.5 0,5.9 0.7,11.7 1.9,17.2 7.4,13.2 14.9,26.2 22.5,39 13.8,12.9 32.3,20.7 52.6,20.7 20.1,0 38.4,-7.7 52.1,-20.3 l -58.9,-49.3 -56.1,-51.8 m 129,5.1 -50.3,39.6 49.1,41.1 c 5.9,-9.2 9.9,-19.9 11.4,-31.4 h -43.5 v -19.9 h 43.5 c -1.4,-10.6 -4.9,-20.6 -10.2,-29.4" /><path
         id="path254"
         style="fill:#919cb1;fill-opacity:1;fill-rule:nonzero;stroke:none"
         d="m 15131.9,11425.3 c 3.5,15.2 11.5,28.7 22.5,39 -7.6,-12.8 -15.1,-25.8 -22.5,-39" /><path
         id="path256"
         style="fill:#ffd9be;fill-opacity:1;fill-rule:nonzero;stroke:none"
         d="m 15207,10316 c -42.5,0 -77,34.5 -77,77 0,12.3 2.9,23.9 8,34.2 l 29.2,-25.8 13.2,15 -31.2,27.5 c 12.1,13.6 28.9,22.9 47.8,25.4 v -66.4 h -17.8 l 17.8,-14.6 v -15.8 l 9.8,7.7 52.7,-43.5 c -13.8,-12.9 -32.2,-20.7 -52.5,-20.7 m 65.2,36.1 -37.5,30.9 h 48.6 c -1.5,-11.3 -5.3,-21.8 -11.1,-30.9 m 11.1,50.8 h -47.3 l 37.3,29.1 c 5.2,-8.7 8.6,-18.6 10,-29.1 m -66.4,10.5 v 55.9 c 17.1,-2.2 32.5,-10 44.1,-21.5 l -44.1,-34.4" /><path
         id="path258"
         style="fill:#ffd9be;fill-opacity:1;fill-rule:nonzero;stroke:none"
         d="m 15216.9,10805.7 v 66.4 h 66.4 c -4.5,-34.5 -31.8,-61.9 -66.4,-66.4 m -19.9,0 c -34.5,4.5 -61.9,31.9 -66.4,66.4 h 21.8 v 19.9 h -21.8 c 4.5,34.6 31.9,61.9 66.4,66.4 v -71.7 l -17.5,-14.6 h 17.5 v -66.4 m 86.3,86.3 h -48.9 l 37.5,31.4 c 5.9,-9.3 9.9,-19.9 11.4,-31.4 m -66.4,11.4 v 55 c 16.2,-2.1 30.8,-9.2 42.2,-19.7 l -42.2,-35.3" /><path
         id="path260"
         style="fill:#919cb1;fill-opacity:1;fill-rule:nonzero;stroke:none"
         d="m 14637.8,10805.1 c -42.5,0 -77,34.5 -77,77 0,42.5 34.5,76.9 77,76.9 18.7,0 35.9,-6.7 49.2,-17.8 l -64.1,-59.3 65.5,-57.8 c -13.6,-11.8 -31.3,-19 -50.6,-19 m 63.8,33.9 -48.9,43.2 47.9,44.3 c 7.1,-9.9 11.8,-21.7 13.5,-34.5 h -28 v -19.9 h 28 c -1.6,-12.1 -6,-23.4 -12.5,-33.1" /><path
         id="path262"
         style="fill:#ffd9be;fill-opacity:1;fill-rule:nonzero;stroke:none"
         d="m 15769.6,11366.7 c -5.9,9.3 -9.9,19.9 -11.4,31.4 h 48.9 l -37.5,-31.4" /><path
         id="path264"
         style="fill:#919cb1;fill-opacity:1;fill-rule:nonzero;stroke:none"
         d="m 15910.9,11418 h -66.4 v 66.4 c 34.5,-4.5 61.9,-31.8 66.4,-66.4" /><path
         id="path266"
         style="fill:#ffd9be;fill-opacity:1;fill-rule:nonzero;stroke:none"
         d="m 15824.6,11418 h -66.4 c 3.4,26.2 19.9,48.3 42.8,59.4 7.7,-12 15.6,-24.1 23.6,-36.1 v -23.3" /><path
         id="path268"
         style="fill:#919cb1;fill-opacity:1;fill-rule:nonzero;stroke:none"
         d="m 15900.2,11367.9 -37.4,30.2 h 48.1 c -1.5,-11 -5.2,-21.2 -10.7,-30.2 m -75.6,73.4 c -8,12 -15.9,24.1 -23.6,36.1 7.3,3.5 15.2,5.9 23.6,7 v -43.1" /><path
         id="path270"
         style="fill:#ffd9be;fill-opacity:1;fill-rule:nonzero;stroke:none"
         d="m 15844.5,11331.7 v 55.5 l 40.3,-32.5 c 0.7,-1 1.4,-2 2.2,-3 -11.5,-10.6 -26.2,-17.8 -42.5,-20" /><path
         id="path272"
         style="fill:#919cb1;fill-opacity:1;fill-rule:nonzero;stroke:none"
         d="m 15887,11351.7 c -0.8,1 -1.5,2 -2.2,3 l 2.9,-2.3 c -0.3,-0.2 -0.5,-0.5 -0.7,-0.7" /><path
         id="path274"
         style="fill:#ffd9be;fill-opacity:1;fill-rule:nonzero;stroke:none"
         d="m 15824.6,11331.7 c -16.2,2.1 -30.7,9.2 -42.1,19.7 l 42.1,35.3 v -55" /><path
         id="path276"
         style="fill:#ffd9be;fill-opacity:1;fill-rule:nonzero;stroke:none"
         d="m 15844.5,10805.7 v 56.4 l 45.1,-33.8 c -11.8,-12.1 -27.5,-20.3 -45.1,-22.6 m -19.9,0 c -17.1,2.2 -32.5,10.1 -44.1,21.6 l 44.1,34.3 v -55.9 m -56.4,37.3 c -5.2,8.7 -8.6,18.6 -10,29.1 h 47.3 l -37.3,-29.1 m 133.4,1.2 -51,38.3 48.8,40.9 c 7.7,-11.9 12.1,-26.1 12.1,-41.3 0,-13.8 -3.6,-26.7 -9.9,-37.9 m -77,47.8 h -66.4 c 2.5,19.6 12.4,36.9 26.8,48.9 l 39.6,-31.1 v -17.8 m 19.9,11.4 v 55 c 16.1,-2.1 30.7,-9.2 42.1,-19.7 l -42.1,-35.3 m -19.9,31.8 -21.7,17.1 c 6.7,3 14,5.1 21.7,6.1 v -23.2" /><path
         id="path278"
         style="fill:#ffd9be;fill-opacity:1;fill-rule:nonzero;stroke:none"
         d="m 15844.5,10316.6 v 66.4 h 66.4 c -4.5,-34.5 -31.9,-61.9 -66.4,-66.4 m -19.9,0 c -34.6,4.5 -61.9,31.9 -66.4,66.4 h 66.4 v -66.4 m 86.3,86.3 h -46.4 l 37.1,27.9 c 4.7,-8.4 8,-17.9 9.3,-27.9 m -86.3,0 h -66.4 c 4.5,34.6 31.8,61.9 66.4,66.4 v -66.4 m 19.9,10 v 56.4 c 17.6,-2.3 33.3,-10.5 45.1,-22.6 l -45.1,-33.8" /><path
         id="path280"
         style="fill:#ffd9be;fill-opacity:1;fill-rule:nonzero;stroke:none"
         d="m 15834.5,9797.6 c -42.5,0 -76.9,34.5 -76.9,77 0,15 4.3,29.1 11.7,40.9 l 65.1,-53.7 66.1,52.5 c 7,-11.6 11,-25.2 11,-39.7 0,-42.5 -34.5,-77 -77,-77 m 10,97.7 v 55.6 c 16.8,-2.2 32,-9.8 43.6,-21 l -43.6,-34.6 m -19.9,0.5 -42.6,35.1 c 11.5,10.7 26.2,17.9 42.6,20 v -55.1" /><g
         transform="scale(1.01613)"
         id="g282"><path
           id="path284"
           style="fill:#919cb1;fill-opacity:1;fill-rule:nonzero;stroke:none"
           d="m 16300,10719.1 h -71.6 l -55.7,45 c 13.5,13 31.9,21 52.2,21 1.9,0 3.7,-0.1 5.5,-0.2 l 4,-44.4 19.5,1.8 -3.4,38.3 c 26.3,-9.4 45.9,-32.9 49.5,-61.5" /></g><g
         transform="scale(1.01597)"
         id="g286"><path
           id="path288"
           style="fill:#ffd9be;fill-opacity:1;fill-rule:nonzero;stroke:none"
           d="m 16237.3,10635.9 v 65.3 h 11 c 17.5,-4.3 34.8,-8.3 51.7,-12 -8.5,-28.2 -32.9,-49.5 -62.7,-53.3" /></g><g
         transform="scale(1.01613)"
         id="g290"><path
           id="path292"
           style="fill:#919cb1;fill-opacity:1;fill-rule:nonzero;stroke:none"
           d="m 16297.4,10687.5 c -16.9,3.7 -34.1,7.7 -51.6,12 h 54.2 c -0.5,-4.1 -1.4,-8.1 -2.6,-12" /></g><g
         transform="scale(1.01083)"
         id="g294"><path
           id="path296"
           style="fill:#ffd9be;fill-opacity:1;fill-rule:nonzero;stroke:none"
           d="m 16300,10689.9 c -17.3,2.3 -32.8,10.4 -44.5,22.3 l 17.9,13.4 -11.9,15.8 -17.9,-13.5 c -4.7,8.4 -7.9,17.7 -9.2,27.7 h 33.1 v 17.1 c 9.2,-2.9 18.4,-5.6 27.8,-8.1 l 4.7,-3.9 v -70.8 m -40.4,85.4 h -25.2 c 0.3,2.8 0.9,5.6 1.5,8.4 7.9,-3 15.8,-5.8 23.7,-8.4" /></g><g
         transform="scale(1.01054)"
         id="g298"><path
           id="path300"
           style="fill:#919cb1;fill-opacity:1;fill-rule:nonzero;stroke:none"
           d="m 16300,10767.7 c -9.4,2.5 -18.6,5.2 -27.8,8.2 v 2.5 h -7.8 c -7.9,2.7 -15.9,5.5 -23.8,8.4 2,7.7 5,14.9 9,21.5 l 50.4,-40.6" /></g><g
         transform="scale(1.03853)"
         id="g302"><path
           id="path304"
           style="fill:#919cb1;fill-opacity:1;fill-rule:nonzero;stroke:none"
           d="m 16264.5,10431.6 c -8.5,10.4 -14.2,23.1 -15.9,37.1 h 51.1 l -35.2,-37.1 m 35.5,56.3 h -51.4 c 1.8,14.2 7.7,27.2 16.4,37.7 l 35,-37.7" /></g><g
         transform="scale(1.0422)"
         id="g306"><path
           id="path308"
           style="fill:#919cb1;fill-opacity:1;fill-rule:nonzero;stroke:none"
           d="m 16264.7,10367.6 c -12.7,0 -24.6,3.2 -35,8.8 11,-0.2 21.7,-0.4 32.2,-0.4 13.2,0 25.8,0.2 38.1,0.6 -10.5,-5.7 -22.5,-9 -35.3,-9" /></g><g
         transform="scale(1.04466)"
         id="g310"><path
           id="path312"
           style="fill:#919cb1;fill-opacity:1;fill-rule:nonzero;stroke:none"
           d="m 16223.5,10351.5 c -10.4,0 -21.1,0.2 -32.1,0.4 -2.9,1.6 -5.8,3.4 -8.5,5.4 l 47.5,50 h 20 v 19.1 h -19.9 l -47,50.4 c 12.1,8.6 26.9,13.7 42.8,13.7 40.7,0 73.7,-33 73.7,-73.7 0,-27.9 -15.6,-52.2 -38.5,-64.7 -12.2,-0.4 -24.9,-0.6 -38,-0.6" /></g><g
         transform="scale(1.01617)"
         id="g314"><path
           id="path316"
           style="fill:#ffd9be;fill-opacity:1;fill-rule:nonzero;stroke:none"
           d="m 16224.2,10151.8 c -20.4,0 -39,8.1 -52.6,21.3 l 56.1,44.7 h 6.4 v 5.9 l 49,51.6 c 10.5,-13 16.9,-29.7 16.9,-47.7 0,-41.9 -34,-75.8 -75.8,-75.8 m -64.9,36.7 c -5.2,8.8 -8.8,18.7 -10.2,29.3 h 47 l -36.8,-29.3 m 35.5,48.9 h -45.7 c 1.3,9.8 4.5,19.1 9.1,27.4 l 36.6,-27.4 m 19.6,9.8 -44.4,33.3 c 11.6,11.9 27.1,19.9 44.4,22.2 v -55.5 m 19.7,5 v 50.5 c 12.9,-1.7 24.7,-6.6 34.7,-13.9 l -34.7,-36.6" /></g><path
         id="path318"
         style="fill:#919cb1;fill-opacity:1;fill-rule:nonzero;stroke:none"
         d="m 15844.5,11857.7 v 55 l 42.1,-35.3 c -11.4,-10.5 -26,-17.6 -42.1,-19.7 m -19.9,0 c -16.2,2.1 -30.7,9.2 -42.1,19.7 l 42.1,35.3 v -55 m 74.8,35 -64.9,54.4 -64.9,-54.4 c -7.6,11.9 -12,26.1 -12,41.4 0,42.5 34.4,76.9 76.9,76.9 42.5,0 77,-34.4 77,-76.9 0,-15.3 -4.4,-29.5 -12.1,-41.4" /><g
         transform="scale(1.01467)"
         id="g320"><path
           id="path322"
           style="fill:#919cb1;fill-opacity:1;fill-rule:nonzero;stroke:none"
           d="m 16221,11167.3 c -18.6,0.8 -35.4,8.2 -48.2,20 l 43.2,36.2 5,-56.2 m 19.6,1.8 -4.2,46.3 31.8,-34 c -8.2,-5.9 -17.5,-10.1 -27.6,-12.3 m 42,25.6 -49,52.7 -0.5,5.6 h -5.5 l -54.8,45.9 c 13.5,12.5 31.5,20.1 51.3,20.1 41.9,0 75.9,-34 75.9,-75.9 0,-18.4 -6.6,-35.2 -17.4,-48.4 m -122.5,7.7 c -5.8,9.1 -9.7,19.6 -11.2,30.9 h 48.2 l -37,-30.9 m 37,50.6 h -48.2 c 1.5,11.3 5.4,21.8 11.2,30.9 l 37,-30.9" /></g><path
         id="path324"
         style="fill:#ffd9be;fill-opacity:1;fill-rule:nonzero;stroke:none"
         d="m 15840.2,11418 h -2.1 l -3.7,3 -3.5,-3 h -6.3 v 23.3 c 5.1,-7.8 10.3,-15.5 15.6,-23.3" /><path
         id="path326"
         style="fill:#919cb1;fill-opacity:1;fill-rule:nonzero;stroke:none"
         d="m 15844.5,11418 h -4.3 c -5.3,7.8 -10.5,15.5 -15.6,23.3 v 43.1 373.3 55 l 9.9,8.3 10,-8.3 v -55 -373.3 -66.4" /><path
         id="path328"
         style="fill:#ffd9be;fill-opacity:1;fill-rule:nonzero;stroke:none"
         d="m 15197,10372.5 v 15.8 l 9.8,-8.1 -9.8,-7.7 m 39,30.4 h -39 v 469.2 h 19.9 v -66.4 -336.4 -55.9 l 44.1,34.4 507.2,395.2 37.3,29.1 h 19.1 v -10.5 l -44.1,-34.3 -507.2,-395.3 -37.3,-29.1 m -39,483.8 v 71.7 373.3 53.6 l 10.5,9.7 9.4,-7.5 v -55.8 -373.3 -55 l -19.9,-16.7 m 633.9,5.3 h -6.3 v 17.8 l 3.8,-3 12.3,15.7 -16.1,12.7 v 23.2 373.3 55 l 10.1,8.5 9.8,-8 v -55.5 -373.3 -55 l -13.6,-11.4" /><g
         transform="scale(1.03686)"
         id="g330"><path
           id="path332"
           style="fill:#919cb1;fill-opacity:1;fill-rule:nonzero;stroke:none"
           d="m 16260.7,10389 c 0.3,9.7 0.6,19.2 1,28.8 l 12.7,13.5 c 8.7,-0.5 17.2,-0.8 25.6,-1.1 l -39.3,-41.2" /></g><g
         transform="scale(1.0402)"
         id="g334"><path
           id="path336"
           style="fill:#919cb1;fill-opacity:1;fill-rule:nonzero;stroke:none"
           d="m 16247.6,10396.7 c -8.4,0.3 -16.8,0.6 -25.5,1.1 l 16.3,17.1 35.2,37 h 26.4 l -47.7,-50.2 -4.7,-5" /></g><g
         transform="scale(1.03442)"
         id="g338"><path
           id="path340"
           style="fill:#ffd9be;fill-opacity:1;fill-rule:nonzero;stroke:none"
           d="m 15307.5,9533.62 -63,51.91 -492.8,407.16 -50.9,42.01 -9.5,7.9 -17.2,14.2 h 17.2 37.7 45.7 459.1 64.2 v 64.1 325.3 54 10.1 h -18.5 -45.7 -459.1 -64.2 -19.2 -16.9 l 16.9,14.1 19.2,16.2 40.8,34.1 247.4,207.4 15.5,-12.2 -250.5,-210 -36.3,-30.3 h 47.3 459.1 64.2 6.1 l -12,-10.1 25.1,-18.9 v -54.4 -325.3 -54.5 l -19.2,-14.5 v -14.4 h -64.2 -459.1 -47 l 36.3,-29.9 492.8,-407.18 41.2,-33.93 V 9546 h 19.2 v 20.01 l 42.2,33.45 514.8,409.24 36.1,28.8 h -46.1 -482.8 -64.2 v 4.8 l 19.4,14.5 h 44.8 482.8 44.9 l 23.1,-17.4 11.6,15.4 -15.5,11.6 v 54.5 325.3 69.1 l -4.6,3.8 c 2,-0.6 4.2,-1.1 6.3,-1.7 2.6,-0.7 5.3,-1.3 8,-2 v -5.1 h 9.6 v -64.1 -325.3 -49.6 l 34.2,36 318.2,335.1 c -0.4,-9.7 -0.7,-19.2 -1,-29 l -303.2,-319.4 -48.2,-50.7 v -5.8 h -6.3 l -55.1,-43.85 -514.8,-409.28 -63.9,-50.75" /></g><g
         transform="scale(1.01166)"
         id="g342"><path
           id="path344"
           style="fill:#919cb1;fill-opacity:1;fill-rule:nonzero;stroke:none"
           d="m 16296.5,10752 c -2.7,0.7 -5.4,1.4 -8.1,2.1 -2.1,0.5 -4.4,1.1 -6.5,1.7 l -50.3,40.5 -263.4,212.5 15.4,12.9 260.5,-210 55.9,-45.2 h -3.5 v -14.5" /></g><path
         id="path346"
         style="fill:#919cb1;fill-opacity:1;fill-rule:nonzero;stroke:none"
         d="m 15062.7,10493.6 -374.3,330.5 -65.5,57.8 64.1,59.3 236.6,218.6 c 1.6,-7.7 3.1,-15.3 4.7,-22.8 l -227.7,-210.5 -47.9,-44.3 48.9,-43.2 355.5,-313.8 c 1.9,-10.5 3.7,-21.1 5.6,-31.6" /><path
         id="path348"
         style="fill:#ffd9be;fill-opacity:1;fill-rule:nonzero;stroke:none"
         d="m 15057.1,11256 c 4.5,13.8 9.2,27.2 14.2,40.3 l 72.8,67.3 56.1,51.8 58.9,49.3 372.1,311.9 c 3,-6 6.1,-12.1 9.2,-18.2 l -368.5,-309 -49.1,-41.1 -9.7,7.6 -12.3,-15.7 6.7,-5.2 -10.5,-9.7 -39.3,-36.4 -100.6,-92.9" /><path
         id="path350"
         style="fill:#919cb1;fill-opacity:1;fill-rule:nonzero;stroke:none"
         d="m 14928.3,11137 c -1.6,7.5 -3.1,15.1 -4.7,22.8 l 147.7,136.5 c -5,-13.1 -9.7,-26.5 -14.2,-40.3 l -128.8,-119" /><path
         id="path352"
         style="fill:#ffd9be;fill-opacity:1;fill-rule:nonzero;stroke:none"
         d="m 15167.2,10401.4 -29.2,25.8 -75.3,66.4 c -1.9,10.5 -3.7,21.1 -5.6,31.6 l 92.1,-81.3 31.2,-27.5 -13.2,-15" /><g
         transform="scale(1.04021)"
         id="g354"><path
           id="path356"
           style="fill:#919cb1;fill-opacity:1;fill-rule:nonzero;stroke:none"
           d="m 16300,10471 h -26.2 l -35,37.6 -370.1,398.2 -30.9,33.2 -2.8,31.2 47.8,-51.3 370,-398.2 47.2,-50.7 m -785.2,248 -241.2,194.6 -2.8,2.2 c -10.1,13.8 -20,27.7 -29.7,41.7 h 8.5 l 36,-29 244.2,-197 -15,-12.5 m 314.3,257.7 h -29.7 l -36,30.2 -490.9,411.4 -40.5,33.9 -9.6,8 -9.5,-8 -40.5,-33.9 -136.6,-114.5 c -3,5.9 -5.9,11.8 -8.8,17.6 l 133,111.6 62.4,52.3 62.4,-52.3 490.9,-411.5 53.4,-44.8" /></g><path
         id="path358"
         style="fill:#ffd9be;fill-opacity:1;fill-rule:nonzero;stroke:none"
         d="m 15546.6,11153.7 -16,12.6 239,200.4 37.5,31.4 h 46.8 c 10.1,-14.5 20.4,-29 30.9,-43.4 l -40.3,32.5 -9.8,8 -10.1,-8.5 -42.1,-35.3 -235.9,-197.7 m 291.5,264.3 h -7.2 l 3.5,3 3.7,-3" /><g
         transform="scale(1.00918)"
         id="g360"><path
           id="path362"
           style="fill:#ffd9be;fill-opacity:1;fill-rule:nonzero;stroke:none"
           d="m 15700.3,9784.74 h -19.7 v 21 54.6 362.36 65.8 14.8 l 19.7,14.9 44.7,33.5 252.1,189 16.4,-12.4 -256.6,-192.4 -36.8,-27.6 -19.8,-14.9 v -4.9 -65.8 -362.36 -55.09 -20.51 m 329.7,755.96 -16.5,12.3 256.7,192.5 17.9,13.4 11.9,-15.8 -17.9,-13.4 -252.1,-189" /></g><path
         id="path364"
         style="fill:#919cb1;fill-opacity:1;fill-rule:nonzero;stroke:none"
         d="m 15005.4,10872.1 h -319.3 v 19.9 h 311.8 c 2.9,-7.9 5.4,-14.6 7.5,-19.9" /><path
         id="path366"
         style="fill:#919cb1;fill-opacity:1;fill-rule:nonzero;stroke:none"
         d="m 15010.8,10872.1 h -5.4 c -2.1,5.3 -4.6,12 -7.5,19.9 h 12.2 c 0.2,-6.5 0.4,-13.2 0.7,-19.9" /><path
         id="path368"
         style="fill:#ffd9be;fill-opacity:1;fill-rule:nonzero;stroke:none"
         d="m 15152.4,10872.1 h -141.6 c -0.3,6.7 -0.5,13.4 -0.7,19.9 h 120.5 21.8 v -19.9" /><g
         transform="scale(1.00882)"
         id="g370"><path
           id="path372"
           style="fill:#ffd9be;fill-opacity:1;fill-rule:nonzero;stroke:none"
           d="m 16300,10777.1 h -33.1 -494.4 v 19.8 h 494.4 25.3 c 2.5,-0.9 5.1,-1.8 7.8,-2.6 v -17.2" /></g><g
         transform="scale(1.00882)"
         id="g374"><path
           id="path376"
           style="fill:#919cb1;fill-opacity:1;fill-rule:nonzero;stroke:none"
           d="m 16300,10794.3 c -2.7,0.8 -5.3,1.7 -7.8,2.6 h 7.8 v -2.6" /></g><g
         transform="scale(1.01326)"
         id="g378"><path
           id="path380"
           style="fill:#919cb1;fill-opacity:1;fill-rule:nonzero;stroke:none"
           d="m 16280.4,10771 -4,44.5 -32.9,367.4 -4.9,56.2 14.4,12.2 -12.6,15.1 -20.7,-17.4 h -48.3 -468.7 -47.5 -8.7 c -4.6,6.5 -9.1,13.1 -13.6,19.6 h 4.3 65.5 468.7 48.3 30.5 5.5 l 0.5,-5.6 2.8,-32 4.2,-46.4 33.3,-373.4 3.5,-38.5 -19.6,-1.7" /></g><path
         id="path382"
         style="fill:#ffd9be;fill-opacity:1;fill-rule:nonzero;stroke:none"
         d="m 15853.9,11398.1 h -614.1 v 19.9 h 600.4 c 4.5,-6.6 9.1,-13.3 13.7,-19.9" /><g
         transform="scale(1.01034)"
         id="g384"><path
           id="path386"
           style="fill:#919cb1;fill-opacity:1;fill-rule:nonzero;stroke:none"
           d="m 15943.3,10984.8 c -4.9,4.5 -9.7,9 -14.5,13.6 l 44.7,37.5 15.4,12.9 240.5,201.6 37.1,31.1 20.8,17.4 12.7,-15.1 -14.4,-12.2 -43.5,-36.3 -237.5,-199.1 -15.5,-13 -45.8,-38.4" /></g><g
         transform="scale(1.01182)"
         id="g388"><path
           id="path390"
           style="fill:#ffd9be;fill-opacity:1;fill-rule:nonzero;stroke:none"
           d="m 16288.1,10263.7 -23.6,17.8 -36.7,27.5 -255.9,191.9 -16.4,12.4 -251.5,188.5 -44.5,33.5 -25.7,19.3 12.2,10.2 13.5,11.3 41.6,34.9 204.5,171.3 c 4.7,-4.6 9.5,-9.1 14.4,-13.6 l -206.3,-172.8 -48.2,-40.5 50.4,-37.8 256,-192 16.4,-12.3 251.3,-188.5 44.6,-33.5 15.8,-11.8 -11.9,-15.8" /></g><path
         id="path392"
         style="fill:#ffd9be;fill-opacity:1;fill-rule:nonzero;stroke:none"
         d="m 15828.4,10906.8 -3.8,3 -39.6,31.1 -254,199.7 -16,12.6 -254.2,199.9 -43.9,34.4 -9.4,7.5 -6.7,5.2 12.3,15.7 9.7,-7.6 50.3,-39.6 257.5,-202.4 16,-12.6 256.3,-201.4 21.7,-17.1 16.1,-12.7 -12.3,-15.7" /><g
         transform="scale(1.04148)"
         id="g394"><path
           id="path396"
           style="fill:#919cb1;fill-opacity:1;fill-rule:nonzero;stroke:none"
           d="m 16300,10439 h -20.1 -26.4 -51 -299.3 -52.9 c -6.8,1.7 -13.6,3.4 -20.4,5.1 v 14.1 h 3.4 69.9 299.3 51.3 26.2 20 v -19.2" /></g><g
         transform="scale(1.01275)"
         id="g398"><path
           id="path400"
           style="fill:#ffd9be;fill-opacity:1;fill-rule:nonzero;stroke:none"
           d="m 16300,10735.2 h -11.1 -9.8 v 5.2 c 7,-1.7 14,-3.5 20.9,-5.2" /></g><path
         id="path402"
         style="fill:#ffffff;fill-opacity:1;fill-rule:nonzero;stroke:none"
         d="m 13947.5,11786.9 h -168.4 v 515.4 h 561.3 v -168.4 h -392.9 v -347" /><g
         transform="scale(1.13755)"
         id="g404"><path
           id="path406"
           style="fill:#ffffff;fill-opacity:1;fill-rule:nonzero;stroke:none"
           d="m 16300,10341.4 h -148 v 345.5 h -305.1 v 148 h 453.1 v -493.5" /></g><g
         transform="scale(1.13755)"
         id="g408"><path
           id="path410"
           style="fill:#ffffff;fill-opacity:1;fill-rule:nonzero;stroke:none"
           d="m 16300,7457.77 h -493.5 v 148.12 h 345.5 v 304.96 h 148 v -453.08" /></g><path
         id="path412"
         style="fill:#ffffff;fill-opacity:1;fill-rule:nonzero;stroke:none"
         d="m 14294.4,8460.6 h -515.3 V 9022 h 168.4 v -392.9 h 346.9 v -168.5" /><g
         transform="scale(1.17454)"
         id="g414"><path
           id="path416"
           style="fill:#f99746;fill-opacity:1;fill-rule:nonzero;stroke:none"
           d="m 16300,2728.13 v -966.5 c 0,-11.84 -0.3,-23.76 -0.7,-35.42 H 11350 c -0.5,11.66 -0.8,23.58 -0.8,35.42 v 966.5 c 0,440.94 284.6,801.68 632.4,801.68 h 3686 c 347.8,0 632.4,-360.74 632.4,-801.68" /></g><g
         transform="scale(1.25265)"
         id="g418"><path
           id="path420"
           style="fill:#2b478b;fill-opacity:1;fill-rule:nonzero;stroke:none"
           d="m 10274.5,12976 c -293.1,0 -531.56,-238.5 -531.56,-531.5 V 2226.32 c 0,-293.06 238.46,-531.51 531.56,-531.51 h 5341.4 c 293.1,0 531.5,238.45 531.5,531.51 V 12444.5 c 0,293 -238.4,531.5 -531.5,531.5 z M 15615.9,1542.25 h -5341.4 c -377.24,0 -684.11,306.87 -684.11,684.07 V 12444.5 c 0,377.2 306.87,684 684.11,684 h 5341.4 c 377.2,0 684.1,-306.8 684.1,-684 V 2226.32 c 0,-377.2 -306.9,-684.07 -684.1,-684.07" /></g><g
         transform="scale(1.02086)"
         id="g422"><path
           id="path424"
           style="fill:#ffffff;fill-opacity:1;fill-rule:nonzero;stroke:none"
           d="m 15872.6,2739.46 -366.5,328.15 103,115 236.8,-211.97 327.5,468.82 126.6,-88.46 -427.4,-611.54" /></g><g
         transform="scale(1.03969)"
         id="g426"><path
           id="path428"
           style="fill:#ffffff;fill-opacity:1;fill-rule:nonzero;stroke:none"
           d="m 15615.1,3690.92 c -362.5,0 -657.5,-294.9 -657.5,-657.41 0,-362.51 295,-657.51 657.5,-657.51 362.5,0 657.4,295 657.4,657.51 0,362.51 -294.9,657.41 -657.4,657.41 z m 0,-1342.33 c -377.7,0 -684.9,307.21 -684.9,684.92 0,377.61 307.2,684.92 684.9,684.92 377.6,0 684.9,-307.31 684.9,-684.92 0,-377.71 -307.3,-684.92 -684.9,-684.92" /></g><g
         transform="scale(1.16301)"
         id="g430"><path
           id="path432"
           style="fill:#ebf3fa;fill-opacity:1;fill-rule:nonzero;stroke:none"
           d="m 16300,4997.2 v -41.45 h -4634.9 v 41.45 H 16300" /></g><path
         id="path434"
         style="fill:#f99746;fill-opacity:1;fill-rule:nonzero;stroke:none"
         d="m 13390.2,5787.7 c 0,97.5 79,176.5 176.5,176.5 97.5,0 176.5,-79 176.5,-176.5 0,-97.4 -79,-176.5 -176.5,-176.5 -97.5,0 -176.5,79.1 -176.5,176.5" /><g
         transform="scale(1.01218)"
         id="g436"><path
           id="path438"
           style="fill:#f99746;fill-opacity:1;fill-rule:nonzero;stroke:none"
           d="m 15832.3,5718.03 c 0,129.13 104.7,233.85 233.8,233.85 129.2,0 233.9,-104.72 233.9,-233.85 0,-129.13 -104.7,-233.85 -233.9,-233.85 -129.1,0 -233.8,104.72 -233.8,233.85" /></g><g
         transform="scale(1.17384)"
         id="g440"><path
           id="path442"
           style="fill:#ebf3fa;fill-opacity:1;fill-rule:nonzero;stroke:none"
           d="m 15999.3,4930.57 c 0,83.06 67.3,150.36 150.3,150.36 83.1,0 150.4,-67.3 150.4,-150.36 0,-82.98 -67.3,-150.36 -150.4,-150.36 -83,0 -150.3,67.38 -150.3,150.36" /></g><path
         id="path444"
         style="fill:#f99746;fill-opacity:1;fill-rule:nonzero;stroke:none"
         d="m 16258.1,5811.8 v -48.2 h -2691.5 v 48.2 h 2691.5" /><g
         transform="scale(1.87112)"
         id="g446"><path
           id="path448"
           style="fill:#2e3552;fill-opacity:1;fill-rule:nonzero;stroke:none"
           d="M 16278,966.799 H 1054.73 c -12.12,0 -22.03,9.942 -22.03,22.073 v 21.588 c 0,12.08 9.91,22.02 22.03,22.02 H 16278 c 12.1,0 22,-9.94 22,-22.02 v -21.588 c 0,-12.131 -9.9,-22.073 -22,-22.073" /></g><path
         id="path450"
         style="fill:#ebf3fa;fill-opacity:1;fill-rule:nonzero;stroke:none"
         d="m 12779.4,14366.4 v 24.2 h 540.4 l 328.7,624.4 h 7.3 c 256.4,0 644.2,2.5 683.4,9.2 l 670,670 h 980 v -24.1 h -970 l -662.1,-662.1 c -5.6,-11.1 -47.1,-13.3 -356.2,-15.7 -151.7,-1.2 -303.4,-1.4 -337.9,-1.4 l -328.6,-624.5 h -555" /><path
         id="path452"
         style="fill:#ebf3fa;fill-opacity:1;fill-rule:nonzero;stroke:none"
         d="m 14465,14909.4 v 167 l -144.6,83.5 -144.7,-83.5 v -167 l 144.7,-83.5 144.6,83.5" /><path
         id="path454"
         style="fill:#ebf3fa;fill-opacity:1;fill-rule:nonzero;stroke:none"
         d="m 15166.1,15574 v 167 l -144.6,83.5 -144.6,-83.5 v -167 l 144.6,-83.5 144.6,83.5" /><path
         id="path456"
         style="fill:#ebf3fa;fill-opacity:1;fill-rule:nonzero;stroke:none"
         d="m 15533.1,14462.1 v 167 l -144.6,83.5 -144.7,-83.5 v -167 l 144.7,-83.5 144.6,83.5" /><path
         id="path458"
         style="fill:#ebf3fa;fill-opacity:1;fill-rule:nonzero;stroke:none"
         d="m 13493.6,14295.9 v 167 l -144.6,83.5 -144.6,-83.5 v -167 l 144.6,-83.4 144.6,83.4" /><path
         id="path460"
         style="fill:#ebf3fa;fill-opacity:1;fill-rule:nonzero;stroke:none"
         d="m 12769.7,14334.4 v 90 l -78,45 -77.9,-45 v -90 l 77.9,-45 78,45" /><path
         id="path462"
         style="fill:#ebf3fa;fill-opacity:1;fill-rule:nonzero;stroke:none"
         d="m 16067.1,15623.8 v 90 l -77.9,45 -78,-45 v -90 l 78,-45 77.9,45" /><path
         id="path464"
         style="fill:#ebf3fa;fill-opacity:1;fill-rule:nonzero;stroke:none"
         d="m 14337.9,15004.9 16.1,18 529.7,-475.3 h 404.3 v -24.1 h -413.6 l -3.4,3.1 -533.1,478.3" /><g
         transform="scale(1.10733)"
         id="g466"><path
           id="path468"
           style="fill:#ebf3fa;fill-opacity:1;fill-rule:nonzero;stroke:none"
           d="m 15934.7,13055.1 h 243.6 l 121.7,-210.9 -121.7,-210.9 h -243.6 l -121.7,210.9 121.7,210.9" /></g><g
         transform="scale(1.00585)"
         id="g470"><path
           id="path472"
           style="fill:#ebf3fa;fill-opacity:1;fill-rule:nonzero;stroke:none"
           d="m 16099.2,15028.6 h 133.9 l 66.9,-115.9 -66.9,-115.9 h -133.9 l -66.9,115.9 66.9,115.9" /></g><g
         transform="scale(1.04486)"
         id="g474"><path
           id="path476"
           style="fill:#ebf3fa;fill-opacity:1;fill-rule:nonzero;stroke:none"
           d="m 16106.8,13716.6 h 128.8 l 64.4,-111.6 -64.4,-111.5 h -128.8 l -64.5,111.5 64.5,111.6" /></g><g
         transform="scale(1.17368)"
         id="g478"><path
           id="path480"
           style="fill:#ebf3fa;fill-opacity:1;fill-rule:nonzero;stroke:none"
           d="m 16128,11668 h 114.7 l 57.3,-99.3 -57.3,-99.3 H 16128 l -57.4,99.3 57.4,99.3" /></g><g
         transform="scale(1.20456)"
         id="g482"><path
           id="path484"
           style="fill:#ebf3fa;fill-opacity:1;fill-rule:nonzero;stroke:none"
           d="m 16132.4,12270.7 h 111.7 l 55.9,-96.8 -55.9,-96.7 h -111.7 l -55.9,96.7 55.9,96.8" /></g><g
         transform="scale(1.08301)"
         id="g486"><path
           id="path488"
           style="fill:#ebf3fa;fill-opacity:1;fill-rule:nonzero;stroke:none"
           d="m 16284.9,13343.2 15.1,9.8 -334.9,514.3 h -877.5 v -17.9 h 867.8 l 329.5,-506.2" /></g><g
         transform="scale(1.16231)"
         id="g490"><path
           id="path492"
           style="fill:#ebf3fa;fill-opacity:1;fill-rule:nonzero;stroke:none"
           d="m 16284.6,11762.1 15.4,6.7 -207.3,476.1 h -563.8 v -16.7 h 552.7 l 203,-466.1" /></g><g
         transform="scale(1.1959)"
         id="g494"><path
           id="path496"
           style="fill:#ebf3fa;fill-opacity:1;fill-rule:nonzero;stroke:none"
           d="m 15641.9,11888.1 263.4,365.9 h 394.7 v 16.3 h -403 l -268.3,-372.7 13.2,-9.5" /></g><g
         transform="scale(1.07424)"
         id="g498"><path
           id="path500"
           style="fill:#ebf3fa;fill-opacity:1;fill-rule:nonzero;stroke:none"
           d="m 15786.4,13230.7 h 513.6 v 18.1 h -513.6 v -18.1" /></g></g></g></svg>